<svg xmlns="http://www.w3.org/2000/svg" version="1.1" xmlns:xlink="http://www.w3.org/1999/xlink"
        xmlns:svgjs="http://svgjs.dev/svgjs" width="1500" height="632" viewBox="0 0 1500 632">
        <g transform="matrix(1,0,0,1,-0.9090909090909918,-1.1962533881716126)"><svg viewBox="0 0 396 167"
                        data-background-color="#f4f2f2" preserveAspectRatio="xMidYMid meet" height="632" width="1500"
                        xmlns="http://www.w3.org/2000/svg" xmlns:xlink="http://www.w3.org/1999/xlink">
                        <g id="tight-bounds" transform="matrix(1,0,0,1,0.2400000000000091,0.3160986009883828)"><svg
                                        viewBox="0 0 395.52 166.36780279802323" height="166.36780279802323"
                                        width="395.52">
                                        <g><svg viewBox="0 0 651.6822125159999 274.1174601002259"
                                                        height="166.36780279802323" width="395.52">
                                                        <g><svg viewBox="0 0 395.52 274.1174601002259"
                                                                        height="274.1174601002259" width="395.52">
                                                                        <g id="textblocktransform"><svg
                                                                                        viewBox="0 0 395.52 274.1174601002259"
                                                                                        height="274.1174601002259"
                                                                                        width="395.52" id="textblock">
                                                                                        <g><svg viewBox="0 0 395.52 181.08598954207133"
                                                                                                        height="181.08598954207133"
                                                                                                        width="395.52">
                                                                                                        <rect width="395.52"
                                                                                                                height="181.08598954207133"
                                                                                                                x="0"
                                                                                                                y="0"
                                                                                                                opacity="1"
                                                                                                                fill="#4962bf"
                                                                                                                data-fill-palette-color="tertiary">
                                                                                                        </rect>
                                                                                                        <g
                                                                                                                transform="matrix(1,0,0,1,23.461705032,23.461705032)">
                                                                                                                <svg width="348.596589936"
                                                                                                                        viewBox="0.5 -15.7 46.24 17.8"
                                                                                                                        height="134.16257947807134"
                                                                                                                        data-palette-color="#f4f2f2">
                                                                                                                        <path d="M6.05-10.95L6.05-10.95Q5.4-10.95 5.4-11.25L5.4-11.25Q5.4-11.5 5.78-11.98 6.15-12.45 6.65-12.8L6.65-12.8Q7.75-13.5 8.38-14 9-14.5 9.9-15.7L9.9-15.7Q9.95-15.6 9.95-15.3L9.95-15.3Q9.95-14.65 9.43-13.73 8.9-12.8 8.25-12.05 7.6-11.3 7.1-11.1L7.1-11.1Q6.65-10.95 6.05-10.95ZM1.6 1.3L1.6 1.3Q1.2 1.3 0.85 1 0.5 0.7 0.5 0.2L0.5 0.2Q0.5-0.85 1.95-3.65L1.95-3.65 2.5-4.75Q2.6-4.85 2.78-5.25 2.95-5.65 3.3-6.3L3.3-6.3Q3.65-7 3.85-7.55 4.05-8.1 4.15-8.6L4.15-8.6Q4.15-8.65 4.35-8.8 4.55-8.95 4.75-9.05L4.75-9.05 5.05-9.1Q5.45-9.1 5.73-8.95 6-8.8 5.9-8.55L5.9-8.55Q5.55-7.8 5.3-7.25 5.05-6.7 4.9-6.3L4.9-6.3 4.85-6.3Q4.3-5.05 3.93-3.93 3.55-2.8 3.6-1.8L3.6-1.8 3.65-0.45Q3.6 0.05 3.3 0.4L3.3 0.4Q3.1 0.55 2.75 0.78 2.4 1 1.85 1.25L1.85 1.25Q1.8 1.3 1.6 1.3ZM7.4 1.8L7.4 1.8Q6.3 1.8 6.5-0.9L6.5-0.9Q6.6-1.5 6.92-2.8 7.25-4.1 7.75-5.68 8.25-7.25 8.7-8.5L8.7-8.5Q9-9.35 9.77-10.1 10.55-10.85 11.05-10.85L11.05-10.85Q11.35-10.85 11.35-10.45L11.35-10.45Q11.35-9.9 10.75-8.75L10.75-8.75Q10-7.35 9.55-6.38 9.1-5.4 8.82-4.42 8.55-3.45 8.25-2.05L8.25-2.05 8.25-1.6Q8.25 0 8.95-0.6L8.95-0.6Q10.25-1.65 11.65-3.08 13.05-4.5 14.3-5.95 15.55-7.4 16.3-8.5L16.3-8.5Q16.8-9.3 17.47-9.73 18.15-10.15 18.05-9.85L18.05-9.85Q18-9.4 17.22-8.2 16.45-7 15.32-5.53 14.2-4.05 13.02-2.7 11.85-1.35 10.95-0.6L10.95-0.6Q10.6-0.25 9.92 0.33 9.25 0.9 8.55 1.35 7.85 1.8 7.4 1.8ZM19.84 0.55L19.84 0.55Q18.79 0.55 17.99 0L17.99 0Q16.7-1 16.7-3L16.7-3Q16.7-5 18.09-7.25 19.49-9.5 22.34-11.4L22.34-11.4Q22.84-11.75 23.7-11.75L23.7-11.75Q24.8-11.75 25.67-11.15 26.55-10.55 26.34-9.6L26.34-9.6Q25.99-8.05 24.82-6.85 23.64-5.65 22.07-4.73 20.49-3.8 18.84-2.95L18.84-2.95Q18.79-2.8 18.77-2.65 18.74-2.5 18.74-2.35L18.74-2.35Q18.74-1.65 19.22-1.13 19.7-0.6 20.54-0.6L20.54-0.6Q21.2-0.6 21.64-0.8L21.64-0.8Q22.45-1.1 22.97-1.35 23.49-1.6 24.2-2.1 24.89-2.6 26.09-3.6L26.09-3.6Q26.64-4 26.74-4L26.74-4Q27.05-4 26.95-3.55L26.95-3.55Q26.45-2.75 25.22-1.8 23.99-0.85 22.52-0.15 21.04 0.55 19.84 0.55ZM19.14-4.3L19.14-4.3Q19.54-4.3 20.79-5.1 22.04-5.9 23.14-6.85L23.14-6.85Q25.05-8.6 25.05-9.55L25.05-9.55Q25.05-9.8 24.89-10L24.89-10Q24.74-10.25 24.45-10.25L24.45-10.25Q23.49-10.25 21.24-8L21.24-8Q19.7-6.5 19.14-4.3ZM26.89 1.05L26.89 1.05Q26.24 1.05 26.24-0.1L26.24-0.1Q26.24-1.05 26.69-1.95L26.69-1.95Q27.84-4.15 28.79-6.3L28.79-6.3Q29.44-7.6 30.02-8.8 30.59-10 31.09-11L31.09-11Q31.39-11.3 31.69-11.3L31.69-11.3Q32.34-11.3 32.09-10.7L32.09-10.7Q31.99-10.35 31.82-9.88 31.64-9.4 31.39-8.75L31.39-8.75Q30.59-6.65 30.44-5.8L30.44-5.8Q31.84-7.05 33.32-8.13 34.79-9.2 36.09-9.9 37.39-10.6 38.29-10.6L38.29-10.6Q39.09-10.6 39.09-9.95L39.09-9.95Q39.09-9.4 38.59-8.78 38.09-8.15 37.59-8.15L37.59-8.15Q37.34-8.15 37.19-8.3L37.19-8.3Q37.04-8.35 36.59-8.35L36.59-8.35Q34.99-8.35 33.24-6.8L33.24-6.8Q31.39-5.25 29.89-3.08 28.39-0.9 27.69 0.7L27.69 0.7Q27.34 1.05 26.89 1.05ZM35.44 2.1L35.44 2.1Q34.64 2.1 34.04 1.95L34.04 1.95Q33.49 1.8 33.49 1.55L33.49 1.55Q33.49 1.15 34.29 1.1L34.29 1.1Q35.04 1.05 35.29 0.95L35.29 0.95Q35.74 0.85 36.34 0.8L36.34 0.8Q36.89 0.7 37.24 0.65L37.24 0.65Q39.64-0.05 39.64-1.5L39.64-1.5Q39.64-2.5 38.59-4.05L38.59-4.05Q37.94-5 37.94-6.15L37.94-6.15Q37.94-7.55 38.82-8.9 39.69-10.25 41.02-11.28 42.34-12.3 43.69-12.65L43.69-12.65Q44.29-12.8 44.94-12.8L44.94-12.8Q45.99-12.8 46.44-12.3L46.44-12.3Q46.74-12 46.74-11L46.74-11Q46.74-10.25 46.49-9.47 46.24-8.7 45.79-8.2L45.79-8.2Q45.54-7.95 45.39-7.95L45.39-7.95Q45.14-7.95 45.14-8.65L45.14-8.65 45.19-9.65Q45.24-10.05 45.27-10.35 45.29-10.65 45.29-10.85L45.29-10.85Q45.29-11.7 44.94-11.85L44.94-11.85Q44.54-11.95 44.39-11.95L44.39-11.95Q43.34-11.95 42.14-11 40.94-10.05 40.19-8.8L40.19-8.8Q39.89-8.35 39.89-7.7L39.89-7.7Q39.89-6.9 40.32-5.83 40.74-4.75 40.94-4.25L40.94-4.25Q41.44-3.15 41.72-2.35 41.99-1.55 41.99-0.95L41.99-0.95Q41.99-0.65 41.94-0.5L41.94-0.5Q42.19-0.6 43.14-0.8L43.14-0.8Q43.99-1 44.59-1L44.59-1Q44.94-1 44.94-0.85L44.94-0.85Q44.94-0.8 44.64-0.5L44.64-0.5Q44.49-0.35 43.72-0.03 42.94 0.3 41.92 0.65 40.89 1 39.89 1.3 38.89 1.6 38.19 1.75L38.19 1.75Q36.99 2.1 35.44 2.1Z"
                                                                                                                                opacity="1"
                                                                                                                                transform="matrix(1,0,0,1,0,0)"
                                                                                                                                fill="#f4f2f2"
                                                                                                                                class="wordmark-text-0"
                                                                                                                                data-fill-palette-color="quaternary"
                                                                                                                                id="text-0">
                                                                                                                        </path>
                                                                                                                </svg>
                                                                                                        </g>
                                                                                                </svg></g>
                                                                                        <g
                                                                                                transform="matrix(1,0,0,1,163.310208,192.81684205807133)">
                                                                                                <svg viewBox="0 0 232.209792 81.30061804215457"
                                                                                                        height="81.30061804215457"
                                                                                                        width="232.209792">
                                                                                                        <g
                                                                                                                transform="matrix(1,0,0,1,0,0)">
                                                                                                                <svg width="232.209792"
                                                                                                                        viewBox="3.8 -29.55 85.39 29.900000000000002"
                                                                                                                        height="81.30061804215457"
                                                                                                                        data-palette-color="#4962bf">
                                                                                                                        <g class="slogan-text-1"
                                                                                                                                data-fill-palette-color="secondary"
                                                                                                                                id="text-1">
                                                                                                                                <path d="M4.6 0L3.8 0 3.8-29.55 12.1-29.55Q14.25-29.55 15.83-28.48 17.4-27.4 17.4-24.7L17.4-24.7 17.4-20.55Q17.4-18.5 16.65-17.23 15.9-15.95 14.78-15.33 13.65-14.7 12.4-14.55L12.4-14.55Q13.2-14.45 14-13.43 14.8-12.4 15.15-11.2L15.15-11.2 18.6 0 17.75 0 14.7-10Q14.1-11.95 13.05-13.15 12-14.35 10.15-14.35L10.15-14.35 4.6-14.35 4.6 0ZM4.6-28.75L4.6-15.15 10.65-15.15Q13.2-15.15 14.9-16.35 16.6-17.55 16.6-20.45L16.6-20.45 16.6-24.55Q16.6-26.7 15.3-27.73 14-28.75 12.3-28.75L12.3-28.75 4.6-28.75ZM29.45 0.35L29.45 0.35Q27.3 0.35 26.07-0.23 24.85-0.8 24.3-1.75 23.75-2.7 23.6-3.88 23.45-5.05 23.45-6.2L23.45-6.2 23.45-18.6Q23.45-20.15 23.8-21.65 24.15-23.15 25.42-24.15 26.7-25.15 29.45-25.15L29.45-25.15Q32.25-25.15 33.5-24.2 34.75-23.25 35.07-21.75 35.4-20.25 35.4-18.6L35.4-18.6 35.4-13.15 24.25-13.15 24.25-6.35Q24.25-4.9 24.52-3.53 24.8-2.15 25.9-1.3 27-0.45 29.45-0.45L29.45-0.45Q31.9-0.45 32.97-1.3 34.05-2.15 34.32-3.5 34.6-4.85 34.6-6.35L34.6-6.35 34.6-8.35 35.4-8.35 35.4-6.2Q35.4-4.65 35.1-3.15 34.8-1.65 33.55-0.65 32.3 0.35 29.45 0.35ZM24.25-18.15L24.25-13.95 34.6-13.95 34.6-18.15Q34.6-19.9 34.35-21.3 34.1-22.7 33.02-23.53 31.95-24.35 29.45-24.35L29.45-24.35Q27.25-24.35 26.12-23.58 25-22.8 24.62-21.43 24.25-20.05 24.25-18.15L24.25-18.15ZM47.2 0.35L47.2 0.35Q45.05 0.35 43.82-0.23 42.6-0.8 42.05-1.75 41.5-2.7 41.35-3.88 41.2-5.05 41.2-6.2L41.2-6.2 41.2-18.6Q41.2-19.75 41.35-20.9 41.5-22.05 42.05-23.03 42.6-24 43.82-24.58 45.05-25.15 47.2-25.15L47.2-25.15Q49.3-25.15 50.52-24.58 51.75-24 52.3-23.03 52.85-22.05 53-20.9 53.15-19.75 53.15-18.6L53.15-18.6 53.15-16.4 52.35-16.4 52.35-18.45Q52.35-19.8 52.07-21.15 51.8-22.5 50.72-23.43 49.65-24.35 47.2-24.35L47.2-24.35Q44.75-24.35 43.65-23.43 42.55-22.5 42.27-21.15 42-19.8 42-18.45L42-18.45 42-6.35Q42-5.05 42.27-3.68 42.55-2.3 43.65-1.38 44.75-0.45 47.2-0.45L47.2-0.45Q49.65-0.45 50.72-1.38 51.8-2.3 52.07-3.68 52.35-5.05 52.35-6.35L52.35-6.35 52.35-8.35 53.15-8.35 53.15-6.2Q53.15-4.65 52.85-3.15 52.55-1.65 51.3-0.65 50.05 0.35 47.2 0.35ZM64.44 0.35L64.44 0.35Q62.29 0.35 61.07-0.23 59.84-0.8 59.29-1.75 58.74-2.7 58.59-3.88 58.44-5.05 58.44-6.2L58.44-6.2 58.44-18.6Q58.44-19.75 58.59-20.9 58.74-22.05 59.32-23.03 59.89-24 61.14-24.58 62.39-25.15 64.64-25.15L64.64-25.15Q67.39-25.15 68.64-24.15 69.89-23.15 70.27-21.65 70.64-20.15 70.64-18.6L70.64-18.6 70.64-6.2Q70.64-4.65 70.27-3.15 69.89-1.65 68.59-0.65 67.29 0.35 64.44 0.35ZM64.44-0.45L64.44-0.45Q67.04-0.45 68.17-1.38 69.29-2.3 69.57-3.68 69.84-5.05 69.84-6.35L69.84-6.35 69.84-18.45Q69.84-19.8 69.57-21.15 69.29-22.5 68.22-23.43 67.14-24.35 64.64-24.35L64.64-24.35Q62.64-24.35 61.52-23.8 60.39-23.25 59.92-22.38 59.44-21.5 59.34-20.48 59.24-19.45 59.24-18.45L59.24-18.45 59.24-6.35Q59.24-5.35 59.34-4.33 59.44-3.3 59.89-2.43 60.34-1.55 61.42-1 62.49-0.45 64.44-0.45ZM77.79 0L76.99 0 76.99-24.75 77.69-24.75 77.79-22.15Q78.34-23.3 79.62-24.23 80.89-25.15 83.24-25.15L83.24-25.15Q85.34-25.15 86.56-24.58 87.79-24 88.34-23.03 88.89-22.05 89.04-20.9 89.19-19.75 89.19-18.6L89.19-18.6 89.19 0 88.39 0 88.39-18.15Q88.39-19.65 88.14-21.08 87.89-22.5 86.81-23.43 85.74-24.35 83.24-24.35L83.24-24.35Q80.49-24.35 79.14-22.85 77.79-21.35 77.79-19.2L77.79-19.2 77.79 0Z"
                                                                                                                                        fill="#4962bf"
                                                                                                                                        data-fill-palette-color="primary">
                                                                                                                                </path>
                                                                                                                        </g>
                                                                                                                </svg>
                                                                                                        </g>
                                                                                                </svg></g>
                                                                                </svg></g>
                                                                </svg></g>
                                                        <g transform="matrix(1,0,0,1,407.250852516,37.43018861744822)">
                                                                <svg viewBox="0 0 244.43135999999996 199.25708286532947"
                                                                        height="199.25708286532947"
                                                                        width="244.43135999999996">
                                                                        <g><svg xmlns="http://www.w3.org/2000/svg"
                                                                                        xmlns:xlink="http://www.w3.org/1999/xlink"
                                                                                        version="1.1" x="0" y="0"
                                                                                        viewBox="10.6 22.5 69.80000000000001 56.900000000000006"
                                                                                        enable-background="new 0 0 100 100"
                                                                                        xml:space="preserve"
                                                                                        height="199.25708286532947"
                                                                                        width="244.43135999999996"
                                                                                        class="icon-icon-0"
                                                                                        data-fill-palette-color="accent"
                                                                                        id="icon-0">
                                                                                        <path d="M75.2 68.9H58.8C58.6 69.3 58.4 69.7 58.1 70.1 56.7 72.1 54.4 73.3 51.9 73.3 50.4 73.3 48.9 72.8 47.7 72L38.3 65.3 34.9 62.8 34.6 62.6C34.2 62.3 34.1 61.7 34.3 61.3 34.6 60.9 35.2 60.8 35.6 61L40.3 64.1 48.9 70C49.3 70.3 49.8 70.5 50.2 70.7 50.7 70.9 51.3 71 51.9 71 53.6 71 55.2 70.2 56.2 68.7 57.8 66.3 57.2 63 54.8 61.4L31.3 45.3C30.4 44.7 29.4 44.4 28.3 44.4H10.6V62H21.3L44.9 78.5C45.8 79.1 46.8 79.4 47.9 79.4H75.1C78 79.4 80.4 77 80.4 74.1S78.1 68.9 75.2 68.9"
                                                                                                fill="#94b7ee"
                                                                                                data-fill-palette-color="accent">
                                                                                        </path>
                                                                                        <path d="M49.1 50C49.1 57 74.5 57 74.5 50 74.5 43.9 70.1 38.7 64.3 37.6 67.4 36.6 69.6 33.7 69.6 30.3 69.6 26 66.1 22.5 61.8 22.5S54 26 54 30.3C54 33.7 56.2 36.6 59.3 37.6 53.4 38.7 49.1 43.8 49.1 50"
                                                                                                fill="#94b7ee"
                                                                                                data-fill-palette-color="accent">
                                                                                        </path>
                                                                                </svg></g>
                                                                </svg></g>
                                                </svg></g>
                                        <defs></defs>
                                </svg>
                                <rect width="395.52" height="166.36780279802323" fill="none" stroke="none"
                                        visibility="hidden"></rect>
                        </g>
                </svg></g>
</svg>